<?xml version="1.0" encoding="utf-8"?>
<!DOCTYPE svg PUBLIC "-//W3C//DTD SVG 1.1//EN" "http://www.w3.org/Graphics/SVG/1.1/DTD/svg11.dtd">
<svg version="1.1" id="Layer_1" xmlns="http://www.w3.org/2000/svg" xmlns:xlink="http://www.w3.org/1999/xlink" viewBox="0 0 26 26">
<polygon display="none" fill="none" stroke="#3A33D1" stroke-width="4.3" points="17.75,4.77 7.94,4.77 3.03,13.26 7.94,21.76 
	17.75,21.76 22.66,13.26 "/>
<polygon display="none" fill="none" stroke="#6464E2" stroke-width="3" points="14.53,5.34 6.83,7.84 5.14,15.77 11.16,21.19 
	18.87,18.69 20.55,10.76 "/>
<g>
	<path fill="#3A33D1" d="M10.29,25.03L1.15,16.8L3.71,4.77l11.69-3.8l9.14,8.23l-2.56,12.03L10.29,25.03z M5.87,15.27l5.45,4.9
		l6.97-2.27l1.53-7.17l-5.45-4.91L7.4,8.1L5.87,15.27z"/>
</g>
<g>
	<path fill="#6464E2" d="M17.76,21.52H7.93L3.01,13l4.92-8.52l9.83,0L22.68,13L17.76,21.52z M9.66,18.52h6.37L19.22,13l-3.19-5.52
		l-6.37,0L6.48,13L9.66,18.52z"/>
</g>
</svg>
