<?xml version="1.0" encoding="utf-8"?>
<!DOCTYPE svg PUBLIC "-//W3C//DTD SVG 1.1//EN" "http://www.w3.org/Graphics/SVG/1.1/DTD/svg11.dtd">
<svg version="1.1" xmlns="http://www.w3.org/2000/svg" xmlns:xlink="http://www.w3.org/1999/xlink" viewBox="0 0 116 26">
<g id="logo">
	<polygon display="none" fill="none" stroke="#3A33D1" stroke-width="4.3" points="17.74,4.77 7.92,4.77 3.02,13.26 7.92,21.76 
		17.74,21.76 22.64,13.26 	"/>
	<polygon display="none" fill="none" stroke="#6464E2" stroke-width="3" points="14.51,5.34 6.81,7.84 5.12,15.77 11.15,21.19 
		18.85,18.69 20.54,10.76 	"/>
	<g>
		<path fill="#333333" d="M30.63,4.63h9.63v2.02h-7.31v5.19h5.95v2.02h-5.95v5.33h7.71v2.02H30.63V4.63z"/>
		<path fill="#333333" d="M43.49,17.55c0,0,1.76,1.79,4.23,1.79c1.55,0,2.87-0.87,2.87-2.44c0-3.6-8.04-2.82-8.04-7.92
			c0-2.58,2.23-4.63,5.36-4.63c3.08,0,4.7,1.67,4.7,1.67l-1.06,1.93c0,0-1.53-1.43-3.64-1.43c-1.76,0-3.01,1.1-3.01,2.42
			c0,3.43,8.04,2.51,8.04,7.9c0,2.56-1.97,4.68-5.26,4.68c-3.52,0-5.5-2.19-5.5-2.19L43.49,17.55z"/>
		<path fill="#3A33D1" d="M55.5,4.63h2.33V19.2h7.43v2.02H55.5V4.63z"/>
		<path fill="#3A33D1" d="M66.66,4.63h2.3v2.33h-2.3V4.63z M66.68,9.33h2.28v11.89h-2.28V9.33z"/>
		<path fill="#3A33D1" d="M71.69,9.33h2.21v1.57c0,0.47-0.05,0.87-0.05,0.87h0.05c0.47-1.03,1.88-2.73,4.46-2.73
			c2.8,0,4.09,1.53,4.09,4.56v7.61h-2.28v-7.1c0-1.67-0.35-2.98-2.26-2.98c-1.81,0-3.27,1.2-3.76,2.91
			c-0.14,0.47-0.19,1.01-0.19,1.6v5.57h-2.28V9.33z"/>
		<path fill="#3A33D1" d="M85.34,11.33h-1.55V9.5h1.62V6.06h2.21V9.5h2.87v1.83h-2.87v5.29c0,2.37,1.67,2.68,2.54,2.68
			c0.33,0,0.54-0.05,0.54-0.05v2.02c0,0-0.33,0.05-0.8,0.05c-1.53,0-4.56-0.47-4.56-4.44V11.33z"/>
	</g>
	<g>
		<path fill="#3A33D1" d="M10.27,25.03L1.14,16.8L3.69,4.77l11.69-3.8l9.14,8.23l-2.56,12.03L10.27,25.03z M5.86,15.27l5.45,4.9
			l6.97-2.27l1.53-7.17l-5.45-4.91L7.38,8.1L5.86,15.27z"/>
	</g>
	<g>
		<path fill="#6464E2" d="M17.75,21.52H7.91L3,13l4.92-8.52l9.83,0L22.66,13L17.75,21.52z M9.65,18.52h6.37L19.2,13l-3.19-5.52
			l-6.37,0L6.46,13L9.65,18.52z"/>
	</g>
</g>
<g id="four_colors" display="none">
	<polygon display="inline" fill="none" stroke="#19B062" stroke-width="4.3" points="46.35,4.1 36.65,5.64 33.14,14.8 39.31,22.42 
		49.01,20.89 52.52,11.73 	"/>
	<polygon display="inline" fill="none" stroke="#22EB82" stroke-width="3" points="43.25,5.17 36.04,8.85 35.61,16.94 42.41,21.35 
		49.62,17.68 50.05,9.58 	"/>
	<polygon display="inline" fill="none" stroke="#3A33D1" stroke-width="4.3" points="14.87,3.4 5.54,6.43 3.5,16.03 10.79,22.6 
		20.12,19.57 22.16,9.97 	"/>
	<polygon display="inline" fill="none" stroke="#6464E2" stroke-width="3" points="16.88,5.98 8.78,5.98 4.73,13 8.78,20.02 
		16.88,20.02 20.93,13 	"/>
	<polygon display="inline" fill="none" stroke="#EB22A1" stroke-width="4.3" points="109.01,5.64 99.31,4.1 93.14,11.73 
		96.65,20.89 106.35,22.42 112.52,14.8 	"/>
	<polygon display="inline" fill="none" stroke="#F37AC7" stroke-width="3" points="105.73,5.7 97.73,6.97 94.83,14.53 99.93,20.83 
		107.93,19.56 110.83,12 	"/>
	<polygon display="inline" fill="none" stroke="#EB7316" stroke-width="4.3" points="77.74,4.5 67.92,4.5 63.01,13 67.92,21.5 
		77.73,21.5 82.64,13 	"/>
	<polygon display="inline" fill="none" stroke="#EF8F45" stroke-width="3" points="78.85,7.58 71.15,5.08 65.12,10.5 66.81,18.42 
		74.51,20.93 80.54,15.5 	"/>
</g>
<g id="accent" display="none">
	<polygon display="inline" fill="none" stroke="#19B062" stroke-width="1.72" points="62.24,9.6 58.36,10.21 56.95,13.88 
		59.42,16.93 63.3,16.31 64.71,12.65 	"/>
	<polygon display="inline" fill="none" stroke="#22EB82" stroke-width="1.2" points="61,10.03 58.11,11.5 57.94,14.73 60.66,16.5 
		63.55,15.03 63.72,11.79 	"/>
	<polygon display="inline" fill="none" stroke="#3A33D1" stroke-width="4.3" points="14.87,3.4 5.54,6.43 3.5,16.03 10.79,22.6 
		20.12,19.57 22.16,9.97 	"/>
	<polygon display="inline" fill="none" stroke="#6464E2" stroke-width="3" points="16.88,5.98 8.78,5.98 4.73,13 8.78,20.02 
		16.88,20.02 20.93,13 	"/>
	<polygon display="inline" fill="none" stroke="#EB22A1" stroke-width="1.72" points="87.3,10.21 83.42,9.6 80.95,12.65 
		82.36,16.31 86.24,16.93 88.71,13.88 	"/>
	<polygon display="inline" fill="none" stroke="#F37AC7" stroke-width="1.2" points="85.99,10.24 82.79,10.75 81.63,13.77 
		83.67,16.29 86.87,15.78 88.03,12.76 	"/>
	<polygon display="inline" fill="none" stroke="#EB7316" stroke-width="1.72" points="74.79,9.76 70.87,9.76 68.9,13.16 
		70.87,16.56 74.79,16.56 76.75,13.16 	"/>
	<polygon display="inline" fill="none" stroke="#EF8F45" stroke-width="1.2" points="75.24,10.99 72.16,9.99 69.75,12.16 
		70.42,15.33 73.5,16.33 75.91,14.16 	"/>
</g>
</svg>
