<?xml version="1.0" encoding="utf-8"?>
<!DOCTYPE svg PUBLIC "-//W3C//DTD SVG 1.1//EN" "http://www.w3.org/Graphics/SVG/1.1/DTD/svg11.dtd">
<svg xmlns="http://www.w3.org/2000/svg" xmlns:xlink="http://www.w3.org/1999/xlink" viewBox="0 0 34 26">
<g id="logo" display="none">
	<polygon fill="none" stroke="#3A33D1" stroke-width="4.3" points="22.03,4.77 12.22,4.77 7.31,13.26 12.22,21.76 22.03,21.76 
		26.94,13.26 	"/>
	<polygon fill="none" stroke="#6464E2" stroke-width="3" points="18.81,5.34 11.11,7.84 9.42,15.77 15.44,21.19 23.15,18.69 
		24.83,10.76 	"/>
	<polygon display="inline" fill="none" stroke="#3A33D1" stroke-width="4.3" points="19.17,3.4 9.83,6.43 7.79,16.03 15.09,22.6 
		24.42,19.57 26.46,9.97 	"/>
	<polygon display="inline" fill="none" stroke="#6464E2" stroke-width="3" points="21.18,5.98 13.08,5.98 9.03,13 13.08,20.02 
		21.18,20.02 25.23,13 	"/>
</g>
<g id="four_colors">
	<g>
		<path fill="#3A33D1" d="M14.57,25.03L5.43,16.8L7.99,4.77l11.69-3.8l9.14,8.23l-2.56,12.03L14.57,25.03z M10.15,15.27l5.45,4.9
			l6.97-2.27l1.53-7.17l-5.45-4.91L11.68,8.1L10.15,15.27z"/>
	</g>
	<g>
		<path fill="#6464E2" d="M22.04,21.52h-9.83L7.29,13l4.92-8.52l9.83,0L26.96,13L22.04,21.52z M13.94,18.52h6.37L23.5,13l-3.19-5.52
			l-6.37,0L10.76,13L13.94,18.52z"/>
	</g>
</g>
<g id="accent" display="none">
	<polygon display="inline" fill="none" stroke="#3A33D1" stroke-width="4.3" points="19.17,3.4 9.83,6.43 7.79,16.03 15.09,22.6 
		24.42,19.57 26.46,9.97 	"/>
	<polygon display="inline" fill="none" stroke="#6464E2" stroke-width="3" points="21.18,5.98 13.08,5.98 9.03,13 13.08,20.02 
		21.18,20.02 25.23,13 	"/>
</g>
</svg>
